<svg width="20" height="19" viewBox="0 0 20 19" fill="none" xmlns="http://www.w3.org/2000/svg">
<path d="M17.4786 15.7533C19.0455 14.1174 20 11.967 20 9.61306C20 7.16393 18.9669 4.93553 17.2855 3.27733V3.27701C17.2841 3.27509 17.2821 3.27446 17.281 3.27286C15.5297 1.54821 13.0759 0.444238 10.3466 0.357671L10.3462 0.357351L10.1514 0.35256C10.101 0.350962 10.0507 0.349365 10 0.349365C9.94931 0.349365 9.89897 0.350962 9.84862 0.35256L9.65448 0.357351L9.65414 0.357671C6.92483 0.444238 4.47103 1.54821 2.71966 3.27286C2.71828 3.27446 2.71621 3.27509 2.71517 3.27701C2.71517 3.27701 2.71517 3.27733 2.71483 3.27765C1.0331 4.93553 0 7.16393 0 9.61306C0 11.967 0.954483 14.1174 2.52138 15.7533C2.52345 15.7562 2.52345 15.7594 2.52586 15.7622C2.53207 15.7702 2.54103 15.774 2.54759 15.7814C4.30828 17.6047 6.83448 18.7793 9.65379 18.8688L9.65414 18.8691L9.84828 18.8739C9.89897 18.8752 9.94931 18.8767 10 18.8767C10.0507 18.8767 10.101 18.8752 10.1514 18.8736L10.3455 18.8688L10.3459 18.8684C13.1683 18.7787 15.6972 17.6019 17.4579 15.7747C17.4624 15.7693 17.4697 15.7677 17.4738 15.7619C17.4766 15.7594 17.4766 15.7562 17.4786 15.7533ZM0.698276 9.93249H4.83724C4.87621 11.2866 5.16172 12.6024 5.67 13.8351C4.68931 14.1638 3.75172 14.6046 2.8731 15.1547C1.58103 13.7309 0.776897 11.9162 0.698276 9.93249ZM3.06138 3.87053C3.91931 4.38738 4.83276 4.80137 5.78552 5.11058C5.20207 6.42251 4.87931 7.83698 4.83724 9.29362H0.698276C0.78069 7.21504 1.65931 5.32237 3.06138 3.87053ZM19.3017 9.29362H15.1628C15.1207 7.83698 14.7979 6.42251 14.2145 5.11058C15.1672 4.80137 16.0807 4.38738 16.9386 3.87053C18.3407 5.32237 19.2193 7.21504 19.3017 9.29362ZM9.65517 5.12911C8.65828 5.10292 7.67966 4.96524 6.73414 4.71927C7.4331 3.39105 8.42 2.1922 9.65517 1.19396V5.12911ZM9.65517 5.76799V9.29362H5.5269C5.56931 7.9047 5.88379 6.55764 6.44621 5.30863C7.48276 5.58686 8.55897 5.74083 9.65517 5.76799ZM10.3448 5.76799C11.441 5.74083 12.5172 5.58718 13.5541 5.30863C14.1166 6.55764 14.431 7.9047 14.4734 9.29362H10.3448V5.76799ZM10.3448 5.12911V1.19396C11.58 2.1922 12.5669 3.39105 13.2659 4.71927C12.3203 4.96524 11.3417 5.10292 10.3448 5.12911ZM13.9341 4.52505C13.2717 3.23932 12.3524 2.06794 11.2141 1.06395C13.2334 1.30864 15.0503 2.15451 16.4497 3.40159C15.6552 3.86861 14.8124 4.24427 13.9341 4.52505ZM6.06586 4.52505C5.18759 4.24427 4.34483 3.86861 3.55069 3.40159C4.94966 2.15451 6.7669 1.30864 8.78621 1.06395C7.64759 2.06794 6.72828 3.23932 6.06586 4.52505ZM5.5269 9.93249H9.65517V13.139C8.51483 13.1671 7.39759 13.3319 6.32379 13.6313C5.83862 12.4637 5.56586 11.2163 5.5269 9.93249ZM9.65517 13.7779V18.0322C8.3331 16.9636 7.29655 15.6654 6.59172 14.2254C7.58034 13.9555 8.60724 13.8054 9.65517 13.7779ZM10.3448 18.0322V13.7779C11.3928 13.805 12.4197 13.9555 13.4083 14.2251C12.7034 15.6654 11.6669 16.9636 10.3448 18.0322ZM10.3448 13.139V9.93249H14.4731C14.4341 11.2163 14.1614 12.4637 13.6759 13.6316C12.6024 13.3319 11.4852 13.1671 10.3448 13.139ZM15.1628 9.93249H19.3017C19.2231 11.9162 18.4193 13.7309 17.1269 15.1547C16.2483 14.6046 15.3107 14.1638 14.33 13.8351C14.8386 12.6024 15.1238 11.2866 15.1628 9.93249ZM3.34172 15.6332C4.15759 15.131 5.02621 14.7273 5.93379 14.4254C6.60448 15.8181 7.56724 17.0873 8.78586 18.1622C6.66483 17.905 4.76655 16.985 3.34172 15.6332ZM11.2141 18.1622C12.4328 17.0876 13.3955 15.8185 14.0662 14.4254C14.9738 14.7273 15.8421 15.131 16.6583 15.6332C15.2334 16.985 13.3352 17.905 11.2141 18.1622Z" fill="white"/>
</svg>
