<svg width="20" height="19" viewBox="0 0 20 19" fill="none" xmlns="http://www.w3.org/2000/svg">
<path d="M19.8779 17.6721L14.0681 12.29C15.17 11.0297 15.8334 9.42754 15.8334 7.68315C15.8334 3.63932 12.2819 0.349365 7.91666 0.349365C3.55142 0.349365 0 3.63932 0 7.68315C0 11.727 3.55146 15.0169 7.9167 15.0169C9.79975 15.0169 11.5293 14.4024 12.8897 13.3816L18.6996 18.7637C18.8624 18.9144 19.1261 18.9144 19.2889 18.7637L19.878 18.2179C20.0407 18.0672 20.0407 17.8228 19.8779 17.6721ZM7.9167 13.473C4.47025 13.473 1.66668 10.8758 1.66668 7.68315C1.66668 4.49046 4.47025 1.89333 7.9167 1.89333C11.3632 1.89333 14.1667 4.49046 14.1667 7.68315C14.1667 10.8758 11.3632 13.473 7.9167 13.473Z" fill="white"/>
</svg>
